<?xml version="1.0" encoding="UTF-8" standalone="no"?>
<svg
        height="470.44217"
        id="svg1"
        version="1.1"
        viewBox="0 0 652.60431 470.44216"
        width="652.60431"
        xmlns="http://www.w3.org/2000/svg"
>
    <defs
            id="defs1"/>
    <g
            id="layer3"
            style="display:inline"
            transform="translate(35.336815,-826.98673)">
        <g
                id="g15">
            <g
                    id="g17"
                    transform="matrix(2.730616,0,0,2.730616,-113.89631,-1271.5603)">
                <g
                        id="g14"
                        transform="translate(0.35897615,1.3224693)">
                    <path
                            d="m 90.961935,891.08681 c -3.289714,-0.0399 -5.07409,2.05971 -5.07409,6.96231 v 7.86173 6.93947 c 0,6.5368 3.171818,6.17958 8.855128,8.03647 5.683317,1.85688 20.695007,6.76169 33.468587,10.93515 12.7736,4.17345 14.5121,3.99339 19.51807,3.99339 5.00597,0 6.74392,0.18006 19.51751,-3.99339 12.77359,-4.17346 27.78528,-9.07827 33.46859,-10.93515 5.68332,-1.85689 8.85513,-1.49967 8.85513,-8.03647 v -6.93947 -7.86173 c 0,-6.5368 -3.17181,-8.09053 -8.85513,-6.23364 -5.68331,1.85688 -20.695,6.76112 -33.46859,10.93458 -12.77359,4.17345 -14.51153,3.99396 -19.5175,3.99396 -5.00597,0 -6.74448,0.17949 -19.51807,-3.99396 -12.77358,-4.17346 -27.78527,-9.0777 -33.468597,-10.93458 -1.42083,-0.46422 -2.684461,-0.71537 -3.781038,-0.72867 z"
                            id="path12"
                            style="fill:#37c870;stroke:#37c870;stroke-width:0;stroke-linecap:round;stroke-linejoin:round;stroke-dasharray:none"/>
                    <path
                            d="m 90.961935,853.25805 c -3.289713,-0.0399 -5.07409,2.05971 -5.07409,6.96232 v 7.86172 6.93947 c 0,6.5368 3.171818,6.17958 8.855128,8.03647 5.683317,1.85688 20.695007,6.76169 33.468587,10.93515 12.7736,4.17346 14.5121,3.99339 19.51807,3.99339 5.00597,0 6.74392,0.18007 19.51751,-3.99339 12.77359,-4.17346 27.78528,-9.07827 33.4686,-10.93515 5.68331,-1.85689 8.85512,-1.49967 8.85512,-8.03647 v -6.93947 -7.86172 c 0,-6.53681 -3.17181,-8.09054 -8.85512,-6.23365 -5.68332,1.85688 -20.69501,6.76112 -33.4686,10.93458 -12.77359,4.17345 -14.51153,3.99396 -19.5175,3.99396 -5.00597,0 -6.74448,0.17949 -19.51807,-3.99396 -12.77358,-4.17346 -27.78527,-9.0777 -33.468597,-10.93458 -1.420829,-0.46422 -2.684461,-0.71537 -3.781038,-0.72867 z"
                            id="path12-3"
                            style="fill:#ffa73b;fill-opacity:1;stroke:#ff920a;stroke-width:0;stroke-linecap:round;stroke-linejoin:round;stroke-dasharray:none;stroke-opacity:1"/>
                    <path
                            d="m 209.57086,830.25332 v 6.93947 c 0,6.5368 -3.17182,6.17958 -8.85513,8.03647 -5.68332,1.85688 -20.695,6.76169 -33.46859,10.93515 -12.77359,4.17346 -14.51154,3.99339 -19.51751,3.99339 -5.00597,0 -6.74448,0.18007 -19.51806,-3.99339 -12.77359,-4.17346 -27.78528,-9.07827 -33.468599,-10.93515 -5.68331,-1.85689 -8.855128,-1.49967 -8.855128,-8.03647 v -6.93947 -8.47451 c 0,-7.14958 3.171818,-6.79237 8.855128,-8.64925 5.683319,-1.85688 14.019719,-1.30661 26.793309,-5.48008 12.77358,-4.17345 15.08631,11.07985 26.19335,11.07985 11.10705,0 11.553,-15.2533 24.32659,-11.07985 12.77359,4.17346 22.97619,3.6232 28.65951,5.48008 5.68331,1.85688 8.85513,1.49967 8.85513,8.64925 z"
                            id="path12-3-7"
                            style="fill:#fe704c;fill-opacity:1;stroke:#ff4b1a;stroke-width:0;stroke-linecap:round;stroke-linejoin:round;stroke-dasharray:none;stroke-opacity:1"/>
                    <path
                            d="m 141.20444,773.05631 c -0.5743,2.14331 -0.17608,7.66335 -0.17608,7.66335 -13.54269,-10.55242 -23.35734,-9.8363 -28.27355,-9.8363 -5.80491,0 -11.37424,2.00532 -11.54186,4.71779 -0.0699,1.13169 1.25982,2.38647 4.93947,3.67007 14.03679,4.89655 14.11297,17.49078 14.23042,20.30962 7.37009,-3.61164 16.57321,2.37623 20.03989,6.16444 2.04552,2.23523 7.3299,8.04136 7.34699,8.08251 2.4344,-2.70421 4.89105,-5.39551 7.34699,-8.08251 3.46669,-3.78821 12.62943,-9.77608 19.99952,-6.16444 0.11745,-2.81884 0.15326,-15.41307 14.19005,-20.30962 3.67965,-1.2836 5.00941,-2.53838 4.93947,-3.67007 -0.16762,-2.71247 -5.73695,-4.71779 -11.54186,-4.71779 -4.91622,0 -14.73086,-0.71612 -28.27355,9.8363 0,0 0.39822,-5.52004 -0.17608,-7.66335 -1.5238,0.7326 -6.4983,3.33673 -6.52491,3.34718 -0.0266,-0.0104 -5.00111,-2.61458 -6.52491,-3.34718 z"
                            id="path4"
                            style="fill:#b3b3b3;stroke:#999999;stroke-width:0;stroke-linecap:round;stroke-linejoin:round;stroke-dasharray:none;stroke-opacity:1"/>
                </g>
                <path
                        aria-label="{&#10;          "
                        d="m 75.678263,1017.8854 q 0,1.2085 -0.219727,2.0874 -0.219726,0.9887 -0.65918,1.5381 -0.439453,0.5493 -1.098632,0.8789 -0.549317,0.3296 -1.208496,0.3296 -1.538086,0.2197 -2.636719,0.2197 -0.98877,0 -2.636719,0 -6.70166,0 -10.876465,-2.1973 -4.174804,-2.1972 -6.591797,-6.5918 -2.307129,-4.2846 -3.186035,-10.8764 -0.769043,-6.59184 -0.769043,-17.68803 V 960.9762 q 0,-7.91016 -0.988769,-12.74414 -0.878907,-4.94385 -2.856446,-8.56934 -1.977539,-3.62549 -5.053711,-5.82275 -3.076171,-2.19727 -7.360839,-2.52686 -0.98877,-0.10986 -1.64795,-0.43945 -0.549316,-0.32959 -0.878906,-0.87891 -0.32959,-0.54932 -0.439453,-1.31836 -0.109863,-0.8789 -0.109863,-1.86767 0,-1.09864 0.109863,-1.86768 0.109863,-0.87891 0.439453,-1.42822 0.32959,-0.54932 0.878906,-0.76905 0.65918,-0.32959 1.64795,-0.43945 8.349609,-0.8789 12.304687,-8.12988 3.955078,-7.36084 3.955078,-21.5332 v -19.66553 q 0,-10.98633 0.878906,-17.57813 0.878907,-6.59179 3.295899,-10.98633 2.416992,-4.39453 6.591797,-6.59179 4.174804,-2.19727 10.656738,-2.19727 1.647949,0 2.526856,0 0.878906,0 2.526855,0.21973 0.769043,0 1.428223,0.32959 0.659179,0.32959 1.098632,0.87891 0.439454,0.54931 0.65918,1.53808 0.219727,0.87891 0.219727,2.0874 0,1.31836 -0.219727,2.30713 -0.219726,0.87891 -0.65918,1.53809 -0.439453,0.65918 -1.098632,0.98877 -0.65918,0.21972 -1.428223,0.21972 H 67.54838 q -2.636719,0 -4.504395,0.98877 -1.867675,0.98877 -3.076172,3.84522 -1.208496,2.85644 -1.867675,8.02002 -0.549317,5.05371 -0.549317,15.49072 v 17.3584 q 0,7.91016 -0.769043,13.51318 -0.769043,5.49317 -2.746582,9.99756 -1.977539,4.5044 -5.3833,7.69043 -3.405762,3.18604 -8.789063,4.17481 5.383301,0.98877 8.789063,4.1748 3.405761,3.18604 5.3833,7.69043 1.977539,4.50439 2.746582,10.10742 0.769043,5.49317 0.769043,13.40332 v 22.30225 q 0,10.43701 0.549317,15.49072 0.659179,5.16354 1.867675,8.02004 1.208497,2.8564 3.076172,3.8452 1.867676,0.9888 4.504395,0.9888 h 4.943848 q 0.659179,0 1.208496,0.2197 0.659179,0.3296 1.098632,0.9888 0.439454,0.6591 0.65918,1.538 0.219727,0.9888 0.219727,2.3072 z"
                        id="text14"
                        style="font-weight:300;font-size:225px;font-family:Calibri;white-space:pre;fill:#53676c;stroke:#999999;stroke-width:0;stroke-linecap:round;stroke-linejoin:round"
                        transform="scale(1.0872983,0.91971081)"/>
                <path
                        aria-label="}&#10;          "
                        d="m 246.2665,926.58651 q 0,1.20854 -0.21973,1.97762 -0.10987,0.76907 -0.43947,1.31841 -0.3296,0.54934 -0.98881,0.87894 -0.54934,0.21974 -1.42828,0.3296 -4.83418,0.32961 -8.02034,3.29604 -3.0763,2.85655 -4.94405,7.471 -1.86775,4.50457 -2.63682,10.21769 -0.65921,5.71312 -0.65921,13.84333 v 19.66631 q 0,10.98677 -0.98881,17.57885 -0.87894,6.592 -3.29603,10.9867 -2.30722,4.3948 -6.48219,6.5921 -4.17497,2.1974 -10.65716,2.1974 -1.64802,0 -2.63683,0 -0.87894,0 -2.85656,-0.2198 -0.6592,0 -1.31841,-0.3296 -0.54934,-0.3296 -0.98881,-0.8789 -0.43947,-0.5494 -0.76907,-1.5382 -0.21974,-0.8789 -0.21974,-2.0875 0,-1.3184 0.21974,-2.3072 0.3296,-0.8789 0.76907,-1.5381 0.43947,-0.6592 0.98881,-0.9888 0.65921,-0.2198 1.31841,-0.2198 h 5.05392 q 2.63682,0 4.50457,-0.9888 1.86775,-0.9888 3.0763,-3.8453 1.20854,-2.8566 1.75788,-8.02038 0.6592,-5.05391 0.6592,-15.49134 v -17.3591 q 0,-7.91047 0.76908,-14.17293 0.76907,-6.37232 2.74669,-11.75584 1.97762,-5.49338 5.38352,-9.44862 3.51576,-3.95524 8.78941,-4.94404 -5.27365,-0.98881 -8.78941,-3.29603 -3.4059,-2.41709 -5.38352,-6.04273 -1.97762,-3.62563 -2.74669,-8.34994 -0.76908,-4.83418 -0.76908,-12.74465 v -22.30314 q 0,-10.43743 -0.6592,-15.49134 -0.54934,-5.16378 -1.75788,-8.02034 -1.20855,-2.85656 -3.0763,-3.84537 -1.86775,-0.98881 -4.50457,-0.98881 h -4.61445 q -0.98881,0 -1.64801,-0.21974 -0.65921,-0.3296 -1.20855,-0.9888 -0.43947,-0.65921 -0.6592,-1.53815 -0.21974,-0.98881 -0.21974,-2.30722 0,-1.20855 0.21974,-2.08749 0.21973,-0.98881 0.6592,-1.53815 0.54934,-0.54934 1.20855,-0.87894 0.6592,-0.3296 1.64801,-0.3296 1.53815,-0.21974 2.41709,-0.21974 0.98881,0 2.63683,0 6.59206,0 10.76703,2.19736 4.17497,2.19735 6.48219,6.59206 2.41709,4.28484 3.29603,10.8769 0.87894,6.59206 0.87894,17.68869 v 24.61036 q 0,7.91048 0.87894,11.97558 0.98881,4.0651 2.96643,6.8118 1.97762,2.63682 5.05392,4.0651 3.07629,1.31841 7.36113,1.75788 0.87894,0 1.42828,0.32961 0.65921,0.3296 0.98881,0.98881 0.3296,0.54933 0.43947,1.31841 0.21973,0.76907 0.21973,1.75788 z"
                        id="text14-0"
                        style="font-weight:300;font-size:225.009px;font-family:Calibri;white-space:pre;fill:#53676c;stroke:#999999;stroke-width:0;stroke-linecap:round;stroke-linejoin:round"
                        transform="scale(1.0872983,0.91971081)"/>
            </g>
        </g>
    </g>
</svg>
