<?xml version="1.0" encoding="UTF-8" standalone="no"?>
<svg
  height="700"
  id="svg1"
  version="1.1"
  viewBox="0 0 700 699.99999"
  width="700"
  sodipodi:docname="logo.svg"
  inkscape:version="1.4.2 (f4327f4, 2025-05-13)"
  xmlns:inkscape="http://www.inkscape.org/namespaces/inkscape"
  xmlns:sodipodi="http://sodipodi.sourceforge.net/DTD/sodipodi-0.dtd"
  xmlns="http://www.w3.org/2000/svg"
>
  <sodipodi:namedview
    id="namedview1"
    pagecolor="#ffffff"
    bordercolor="#000000"
    borderopacity="0.25"
    inkscape:showpageshadow="2"
    inkscape:pageopacity="0.0"
    inkscape:pagecheckerboard="0"
    inkscape:deskcolor="#d1d1d1"
    inkscape:zoom="0.85770372"
    inkscape:cx="229.10009"
    inkscape:cy="316.54287"
    inkscape:window-width="1920"
    inkscape:window-height="1009"
    inkscape:window-x="1072"
    inkscape:window-y="824"
    inkscape:window-maximized="1"
    inkscape:current-layer="g17"/>
  <defs
    id="defs1"/>
  <g
    id="layer3"
    style="display:inline"
    transform="translate(35.336815,-826.98673)">
    <g
      id="g15">
      <g
        id="g17"
        transform="matrix(2.730616,0,0,2.730616,-113.89631,-1271.5603)">
        <g
          id="g14"
          transform="translate(9.036477,43.356526)">
          <path
            d="m 90.961935,891.08681 c -3.289714,-0.0399 -5.07409,2.05971 -5.07409,6.96231 v 7.86173 6.93947 c 0,6.5368 3.171818,6.17958 8.855128,8.03647 5.683317,1.85688 20.695007,6.76169 33.468587,10.93515 12.7736,4.17345 14.5121,3.99339 19.51807,3.99339 5.00597,0 6.74392,0.18006 19.51751,-3.99339 12.77359,-4.17346 27.78528,-9.07827 33.46859,-10.93515 5.68332,-1.85689 8.85513,-1.49967 8.85513,-8.03647 v -6.93947 -7.86173 c 0,-6.5368 -3.17181,-8.09053 -8.85513,-6.23364 -5.68331,1.85688 -20.695,6.76112 -33.46859,10.93458 -12.77359,4.17345 -14.51153,3.99396 -19.5175,3.99396 -5.00597,0 -6.74448,0.17949 -19.51807,-3.99396 -12.77358,-4.17346 -27.78527,-9.0777 -33.468597,-10.93458 -1.42083,-0.46422 -2.684461,-0.71537 -3.781038,-0.72867 z"
            id="path12"
            style="fill:#37c870;stroke:#37c870;stroke-width:0;stroke-linecap:round;stroke-linejoin:round;stroke-dasharray:none"/>
          <path
            d="m 90.961935,853.25805 c -3.289713,-0.0399 -5.07409,2.05971 -5.07409,6.96232 v 7.86172 6.93947 c 0,6.5368 3.171818,6.17958 8.855128,8.03647 5.683317,1.85688 20.695007,6.76169 33.468587,10.93515 12.7736,4.17346 14.5121,3.99339 19.51807,3.99339 5.00597,0 6.74392,0.18007 19.51751,-3.99339 12.77359,-4.17346 27.78528,-9.07827 33.4686,-10.93515 5.68331,-1.85689 8.85512,-1.49967 8.85512,-8.03647 v -6.93947 -7.86172 c 0,-6.53681 -3.17181,-8.09054 -8.85512,-6.23365 -5.68332,1.85688 -20.69501,6.76112 -33.4686,10.93458 -12.77359,4.17345 -14.51153,3.99396 -19.5175,3.99396 -5.00597,0 -6.74448,0.17949 -19.51807,-3.99396 -12.77358,-4.17346 -27.78527,-9.0777 -33.468597,-10.93458 -1.420829,-0.46422 -2.684461,-0.71537 -3.781038,-0.72867 z"
            id="path12-3"
            style="fill:#ffa73b;fill-opacity:1;stroke:#ff920a;stroke-width:0;stroke-linecap:round;stroke-linejoin:round;stroke-dasharray:none;stroke-opacity:1"/>
          <path
            d="m 209.57086,830.25332 v 6.93947 c 0,6.5368 -3.17182,6.17958 -8.85513,8.03647 -5.68332,1.85688 -20.695,6.76169 -33.46859,10.93515 -12.77359,4.17346 -14.51154,3.99339 -19.51751,3.99339 -5.00597,0 -6.74448,0.18007 -19.51806,-3.99339 -12.77359,-4.17346 -27.78528,-9.07827 -33.468599,-10.93515 -5.68331,-1.85689 -8.855128,-1.49967 -8.855128,-8.03647 v -6.93947 -8.47451 c 0,-7.14958 3.171818,-6.79237 8.855128,-8.64925 5.683319,-1.85688 14.019719,-1.30661 26.793309,-5.48008 12.77358,-4.17345 15.08631,11.07985 26.19335,11.07985 11.10705,0 11.553,-15.2533 24.32659,-11.07985 12.77359,4.17346 22.97619,3.6232 28.65951,5.48008 5.68331,1.85688 8.85513,1.49967 8.85513,8.64925 z"
            id="path12-3-7"
            style="fill:#fe704c;fill-opacity:1;stroke:#ff4b1a;stroke-width:0;stroke-linecap:round;stroke-linejoin:round;stroke-dasharray:none;stroke-opacity:1"/>
          <path
            d="m 141.20444,773.05631 c -0.5743,2.14331 -0.17608,7.66335 -0.17608,7.66335 -13.54269,-10.55242 -23.35734,-9.8363 -28.27355,-9.8363 -5.80491,0 -11.37424,2.00532 -11.54186,4.71779 -0.0699,1.13169 1.25982,2.38647 4.93947,3.67007 14.03679,4.89655 14.11297,17.49078 14.23042,20.30962 7.37009,-3.61164 16.57321,2.37623 20.03989,6.16444 2.04552,2.23523 7.3299,8.04136 7.34699,8.08251 2.4344,-2.70421 4.89105,-5.39551 7.34699,-8.08251 3.46669,-3.78821 12.62943,-9.77608 19.99952,-6.16444 0.11745,-2.81884 0.15326,-15.41307 14.19005,-20.30962 3.67965,-1.2836 5.00941,-2.53838 4.93947,-3.67007 -0.16762,-2.71247 -5.73695,-4.71779 -11.54186,-4.71779 -4.91622,0 -14.73086,-0.71612 -28.27355,9.8363 0,0 0.39822,-5.52004 -0.17608,-7.66335 -1.5238,0.7326 -6.4983,3.33673 -6.52491,3.34718 -0.0266,-0.0104 -5.00111,-2.61458 -6.52491,-3.34718 z"
            id="path4"
            style="fill:#b3b3b3;stroke:#999999;stroke-width:0;stroke-linecap:round;stroke-linejoin:round;stroke-dasharray:none;stroke-opacity:1"/>
        </g>
        <path
          aria-label="{&#10;          "
          d="m 90.96367,978.19427 q 0,1.11147 -0.238909,1.9198 -0.238908,0.90932 -0.716726,1.41461 -0.477816,0.5052 -1.19454,0.80833 -0.597272,0.30314 -1.313996,0.30314 -1.672358,0.20206 -2.8669,0.20206 -1.075088,0 -2.8669,0 -7.286704,0 -11.825962,-2.02088 -4.539257,-2.02079 -7.16725,-6.06255 -2.508537,-3.94059 -3.46417,-10.00314 -0.836179,-6.06259 -0.836179,-16.26788 v -22.6335 q 0,-7.27506 -1.075087,-11.72092 -0.955634,-4.54692 -3.105809,-7.88132 -2.150175,-3.3344 -5.494891,-5.35524 -3.344716,-2.02086 -8.003428,-2.32398 -1.075088,-0.10104 -1.791813,-0.40417 -0.597271,-0.30313 -0.955633,-0.80834 -0.358363,-0.50522 -0.477817,-1.21251 -0.119454,-0.80834 -0.119454,-1.71772 0,-1.01043 0.119454,-1.71773 0.119454,-0.80834 0.477817,-1.31355 0.358362,-0.50521 0.955633,-0.7073 0.716725,-0.30313 1.791813,-0.40417 9.078516,-0.80833 13.378865,-7.47713 4.30035,-6.76985 4.30035,-19.80432 v -18.0866 q 0,-10.10425 0.955633,-16.1668 0.955634,-6.06254 3.583625,-10.10424 2.627991,-4.0417 7.16725,-6.06254 4.539257,-2.02086 11.587053,-2.02086 1.791812,0 2.747446,0 0.955633,0 2.747445,0.20209 0.836179,0 1.552905,0.30313 0.716724,0.30313 1.19454,0.80834 0.477818,0.50521 0.716726,1.41459 0.238909,0.80834 0.238909,1.9198 0,1.21251 -0.238909,2.1219 -0.238908,0.80834 -0.716726,1.41459 -0.477816,0.60626 -1.19454,0.90939 -0.716726,0.20208 -1.552905,0.20208 h -5.136528 q -2.866901,0 -4.897621,0.90938 -2.03072,0.90938 -3.344717,3.53649 -1.313996,2.6271 -2.03072,7.3761 -0.597271,4.64795 -0.597271,14.24698 v 15.96471 q 0,7.27506 -0.836179,12.42822 -0.83618,5.05212 -2.986354,9.19486 -2.150175,4.14275 -5.853253,7.07297 -3.70308,2.93024 -9.556334,3.83962 5.853254,0.90938 9.556334,3.83961 3.703078,2.93023 5.853253,7.07297 2.150174,4.14274 2.986354,9.2959 0.836179,5.05213 0.836179,12.32718 v 20.51162 q 0,9.59903 0.597271,14.24698 0.716724,4.74897 2.03072,7.37612 1.313997,2.62706 3.344717,3.53647 2.03072,0.90941 4.897621,0.90941 h 5.375437 q 0.716724,0 1.313996,0.20206 0.716724,0.30314 1.19454,0.90941 0.477818,0.60619 0.716726,1.41452 0.238909,0.90941 0.238909,2.12196 z"
          id="text14"
          style="font-weight:300;font-size:225px;font-family:Calibri;white-space:pre;fill:#53676c;stroke:#999999;stroke-width:0;stroke-linecap:round;stroke-linejoin:round"/>
        <path
          aria-label="}&#10;          "
          d="m 276.44397,894.22569 q 0,1.11151 -0.23891,1.81884 -0.11946,0.70732 -0.47783,1.21256 -0.35838,0.50523 -1.07514,0.80837 -0.59729,0.20209 -1.55296,0.30313 -5.2562,0.30315 -8.7205,3.03141 -3.34486,2.6272 -5.37566,6.87116 -2.0308,4.1429 -2.86701,9.39732 -0.71676,5.25441 -0.71676,12.73186 v 18.08731 q 0,10.10465 -1.07513,16.16746 -0.95567,6.06274 -3.58377,10.10459 -2.50863,4.04194 -7.04807,6.06282 -4.53944,2.02098 -11.58751,2.02098 -1.79189,0 -2.86703,0 -0.95567,0 -3.10593,-0.20216 -0.71675,0 -1.4335,-0.30313 -0.5973,-0.30314 -1.07513,-0.80834 -0.47784,-0.50529 -0.83621,-1.4147 -0.23893,-0.80833 -0.23893,-1.91989 0,-1.21255 0.23893,-2.12196 0.35837,-0.80833 0.83621,-1.41461 0.47783,-0.60627 1.07513,-0.90941 0.71675,-0.20215 1.4335,-0.20215 h 5.49512 q 2.86701,0 4.89781,-0.90941 2.0308,-0.90941 3.34486,-3.53656 1.31404,-2.62725 1.91134,-7.37643 0.71674,-4.64814 0.71674,-14.24756 v -15.96535 q 0,-7.27534 0.83622,-13.03499 0.83621,-5.8607 2.98648,-10.81198 2.15026,-5.05232 5.85349,-8.68999 3.82268,-3.63768 9.55671,-4.54709 -5.73403,-0.90942 -9.55671,-3.0314 -3.70323,-2.22302 -5.85349,-5.55756 -2.15027,-3.33453 -2.98648,-7.67953 -0.83622,-4.44605 -0.83622,-11.72139 v -20.51244 q 0,-9.59942 -0.71674,-14.24755 -0.5973,-4.74919 -1.91134,-7.3764 -1.31406,-2.62721 -3.34486,-3.53663 -2.0308,-0.90942 -4.89781,-0.90942 h -5.01728 q -1.07513,0 -1.79188,-0.20209 -0.71676,-0.30314 -1.31406,-0.90941 -0.47783,-0.60629 -0.71674,-1.41466 -0.23893,-0.90942 -0.23893,-2.12197 0,-1.11152 0.23893,-1.91989 0.23891,-0.90942 0.71674,-1.41465 0.5973,-0.50524 1.31406,-0.80837 0.71675,-0.30314 1.79188,-0.30314 1.67242,-0.2021 2.62809,-0.2021 1.07514,0 2.86703,0 7.16753,0 11.70697,2.02094 4.53944,2.02093 7.04807,6.06279 2.6281,3.94081 3.58377,10.0036 0.95567,6.06279 0.95567,16.26848 v 22.63441 q 0,7.27536 0.95567,11.01407 1.07513,3.73872 3.22539,6.26489 2.15027,2.42511 5.49512,3.73872 3.34485,1.21255 8.00375,1.61674 0.95567,0 1.55296,0.30314 0.71676,0.30314 1.07514,0.90942 0.35837,0.50523 0.47783,1.21256 0.23891,0.70732 0.23891,1.61674 z"
          id="text14-0"
          style="font-weight:300;font-size:225.009px;font-family:Calibri;white-space:pre;fill:#53676c;stroke:#999999;stroke-width:0;stroke-linecap:round;stroke-linejoin:round"/>
      </g>
    </g>
  </g>
</svg>
